<?xml version="1.0" encoding="utf-8"?>
<!-- Generator: Adobe Illustrator 21.0.0, SVG Export Plug-In . SVG Version: 6.00 Build 0)  -->
<svg version="1.1" xmlns="http://www.w3.org/2000/svg" xmlns:xlink="http://www.w3.org/1999/xlink" x="0px" y="0px"
	 viewBox="0 0 577 500" style="enable-background:new 0 0 577 500;" xml:space="preserve">
<style type="text/css">
	.st0{fill:#FFFFFF;}
	.st1{font-family:'LeagueGothic-Regular';}
	.st2{font-size:139.3935px;}
	.st3{font-size:65.3154px;}
	.st4{letter-spacing:-1;}
	.st5{font-size:93.6724px;}
	.st6{fill:#00FBFF;}
	.st7{fill:#FFF700;}
	.st8{fill:#FF00DD;}
	.st9{display:none;}
	.st10{display:inline;}
	.st11{fill:#FF0000;}
	.st12{fill:#0000FF;}
	.st13{fill:#00FF00;}
</style>
<g id="KJD_Triangle_CMYK">
	<polygon id="Bottom" points="559.8,500 17.2,500 34.6,469.9 51.1,469.9 42,485.7 535,485.7 525.9,469.9 542.4,469.9 	"/>
	<polygon id="Right" points="577,469.9 542.6,469.9 534.3,455.6 552.2,455.6 305.7,28.7 296.8,44.1 288.5,29.8 305.7,0 	"/>
	<polygon id="Left" points="288.5,29.8 280.2,44.1 271.3,28.7 24.8,455.6 42.7,455.6 34.4,469.9 0,469.9 271.3,0 	"/>
	<polygon id="Triangle" points="517.6,455.6 59.4,455.6 288.5,58.7 	"/>
	<text id="KJDtext" transform="matrix(1 0 0 1 197.6148 316.6914)"><tspan x="0" y="0" class="st0 st1 st2">KYLE </tspan><tspan x="4.7" y="55.8" class="st0 st1 st3">JOHNSTON</tspan><tspan x="184" y="55.8" class="st0 st1 st3 st4"> </tspan><tspan x="1.9" y="132.7" class="st0 st1 st5">DESIGN</tspan></text>
	<polygon id="Cyan_1_" class="st6" points="288.5,58.7 296.8,44.1 288.5,29.8 280.2,44.1 	"/>
	<polygon id="Yello" class="st7" points="59.4,455.6 51.1,469.9 34.4,469.9 42.7,455.6 	"/>
	<polygon id="Magenta" class="st8" points="517.6,455.6 534.3,455.6 542.6,469.9 525.9,469.9 	"/>
</g>
<g id="KJD_Triangle_RGB" class="st9">
	<g id="RGB" class="st10">
		<polygon id="Red" class="st11" points="288.5,58.7 296.8,44.1 288.5,29.8 280.2,44.1 		"/>
		<polygon id="Blue" class="st12" points="59.4,455.6 51.1,469.9 34.4,469.9 42.7,455.6 		"/>
		<polygon id="Green" class="st13" points="517.6,455.6 534.3,455.6 542.6,469.9 525.9,469.9 		"/>
	</g>
</g>
</svg>
